<svg width="900" height="156" xmlns="http://www.w3.org/2000/svg" version="1.1" xml:space="preserve">
 <g>
  <title>Layer 1</title>
  <path fill="#ffffff" d="m899.31799,79.0834c0.20001,0.60001 0.29999,0.8 -0.29999,-0.8c-0.20001,-0.5 -0.29999,-0.6 -0.20001,-0.5c-5,-11 -33.70001,-29.1 -42.29999,-35.9999c-8.70001,-7 -32.40002,-24.3001 -36.20001,-24.9001c-6.70001,-1.0999 -11.70001,5.2 -9.20001,11.5c1.60004,4.3 15.70001,12.7 19.30005,15.5c13.5,10.9001 28.19995,19.79999 41.69995,30.7l-485.29999,-5.39999c4.39999,-11.8999 4.60001,-24.7 -2.39999,-38.3c-8.5,-16.5 -27.79999,-27.89997 -46.5,-23.09995c-16.5,4.19995 -28.39999,19.49995 -36.79999,33.29995c-10.90002,-15.4 -25.30002,-33.99997 -46.00002,-34.19999c-23.3,-0.29998 -38.7,22.29998 -40.39998,43.59998c-0.5,5.8001 0.29999,11.4 1.89998,16.9l-26.2,-0.3c-9.8,-11.7999 -19.5,-23.6 -29.3,-35.5c-5.59999,-6.8 -15.5,-26.39996 -24.8,-13.2c-4.59998,6.5 34.8,48.5 34.8,48.5l-20,-0.2c-9.3,-10.6 -18.59999,-21.3 -27.89999,-31.8999c-4.7,-5.4001 -17.5,-27.00005 -25.5004,-27.10006c-18.9,-0.30002 0,20.29996 3.5004,24.39996c10,11.5 20.1,23 30.09998,34.4l-9.39999,-0.1c-19,-15.7 -36.70039,-32.9 -54.6004,-49.79999c-6.5,-6.2 -21.09999,-26.29995 -27.09999,-10.89996c-2.6,6.60006 38.8,42.79996 58.8,60.49996c-19.1,-0.2 -26.6,-2.8 -40.7,-16.1c-8.4,-7.9 -16.79991,-15.7999 -25.20001,-23.7c-4.5,-4.2 -12.8,-16 -18.79999,-17.69996c-6.29997,-1.89999 -12.99996,2.89996 -10.69996,10.19996c1.39999,4.4 17.19995,16.29999 20.30006,19.2c14.1,13.3 22.4999,23.2001 37.7999,35.09999c-23.6999,13.2 -36.2999,28.29961 -55.89995,46.7996c-1.60001,1.5 -8.60001,7.9 -4.60001,13.89999c8.60001,12.79999 35.19996,-18.39999 42.99996,-25.8c7.2,-6.8 16.3001,-17.9996 25.2,-22.29961c9.3,-4.5 20,-2.6 30.2,-2.5c10.2,0.10001 -28.4,26.1996 -42.4,39.3996c-5.1999,4.9 -26.6,18.60001 -13,25.89999c8.6,4.60001 21.3,-13.39999 27.2,-19.09999c16.6,-15.7 33.0004,-31.4996 50.6004,-45.9996l11.10001,0.1l-43.60041,49.89961c-1.5,1.7 -1.3,4.2 0.4,5.59999c9.89999,14 22.6004,-9.5 28.8004,-16.60001c11.3,-12.89999 22.59999,-25.8996 33.89999,-38.79958l17.5,0.2c0,0 -26.59999,29.1996 -32.89999,42.3996c-1.60001,3.3 -0.40001,7.4 2.89999,9.00001c7.8,4 15.5,-10.50001 20.2,-16.2c9.60001,-11.7 19.20001,-23.29961 28.90001,-34.9996l35.59999,0.2c14.3,22.0996 40.39998,40.8996 57.00002,55.69961c5.10001,4.5 15.19998,17.79999 22.80002,15.89998c7.59998,-1.8 19.39996,-17.09999 24.79999,-22c14.89999,-13.49998 36.10001,-29.8 49.10001,-48.59959l491.39999,3.5c-6.60004,5.6 -67,30.4996 -64.60004,40.29958c4.40002,17.70001 42.5,-7.19998 51.79999,-11.89999c11.40002,-6 46.5,-24.19949 42.20001,-38.09959l0,-0.00002zm-557,26.1996c-13.19998,12.5 -26.69998,24.6 -40.29999,36.6c-18.89999,-16.6 -38.10001,-33.3 -55.5,-51.4995c-1.90001,-2 -3.8,-4 -5.60002,-6c-4.79999,-5.3001 -9.10001,-10.7001 -11.7,-16.9c-1.8,-4.4001 -2.90001,-9.1001 -2.60001,-14.6001c0.60001,-15.5999 11.10001,-33.6 28.3,-33.8999c13.39998,0.0999 23.59999,12.3999 31.09999,22c3.5,4.5999 13.30002,23.6999 20.89999,13.8999c9.60001,-12.3999 15.89999,-29.7 32.39999,-34.8999c23.10001,-7.1001 41.30002,18.1999 38.10001,39.3c-0.5,3.3999 -1.5,6.5999 -3,9.6999c-2.70001,5.8 -6.70001,11.1 -11.20001,16.2c-6.69998,7.5 -14.59998,14.1 -20.89996,20.09959l0,0.00001z" id="svg_1" stroke="#000000"/>
  <text style="cursor: text;" stroke="#000000" transform="matrix(1 0 0 0.890949 -78.5726 1.15686)" xml:space="preserve" text-anchor="start" font-family="'Asap'" font-size="40" stroke-width="0" id="svg_13" y="65.50007" x="505.35797" fill="#ffffff">See What Chloe Did!</text>
 </g>

</svg>